<svg width="77" height="57" viewBox="0 0 77 57" fill="none" xmlns="http://www.w3.org/2000/svg">
<path opacity="0.8" fill-rule="evenodd" clip-rule="evenodd" d="M29.0437 9.02185C28.4673 8.44545 27.5327 8.44545 26.9563 9.02185L8.17029 27.8079C7.59388 28.3843 7.59388 29.3188 8.17029 29.8952L26.9563 48.6813C27.5327 49.2577 28.4673 49.2577 29.0437 48.6813L47.8297 29.8952C48.4061 29.3188 48.4061 28.3843 47.8297 27.8079L29.0437 9.02185ZM30.0873 1.71617C28.9345 0.563361 27.0655 0.563362 25.9127 1.71617L0.864603 26.7642C-0.288201 27.917 -0.288201 29.7861 0.864604 30.9389L25.9127 55.987C27.0655 57.1398 28.9345 57.1398 30.0873 55.987L55.1354 30.9389C56.2882 29.7861 56.2882 27.917 55.1354 26.7642L30.0873 1.71617Z" fill="#788896"/>
<mask id="mask0_812_75483" style="mask-type:alpha" maskUnits="userSpaceOnUse" x="0" y="0" width="56" height="57">
<path fill-rule="evenodd" clip-rule="evenodd" d="M29.0437 9.02185C28.4673 8.44545 27.5327 8.44545 26.9563 9.02185L8.17029 27.8079C7.59388 28.3843 7.59388 29.3188 8.17029 29.8952L26.9563 48.6813C27.5327 49.2577 28.4673 49.2577 29.0437 48.6813L47.8297 29.8952C48.4061 29.3188 48.4061 28.3843 47.8297 27.8079L29.0437 9.02185ZM30.0873 1.71617C28.9345 0.563361 27.0655 0.563362 25.9127 1.71617L0.864603 26.7642C-0.288201 27.917 -0.288201 29.7861 0.864604 30.9389L25.9127 55.987C27.0655 57.1398 28.9345 57.1398 30.0873 55.987L55.1354 30.9389C56.2882 29.7861 56.2882 27.917 55.1354 26.7642L30.0873 1.71617Z" fill="white"/>
</mask>
<g mask="url(#mask0_812_75483)">
<g filter="url(#filter0_d_812_75483)">
<path d="M46.9127 1.71617C48.0655 0.563361 49.9345 0.563361 51.0873 1.71617L76.1354 26.7642C77.2882 27.917 77.2882 29.7861 76.1354 30.9389L51.0873 55.987C49.9345 57.1398 48.0655 57.1398 46.9127 55.987L21.8646 30.9389C20.7118 29.7861 20.7118 27.917 21.8646 26.7642L46.9127 1.71617Z" fill="white" fill-opacity="0.01"/>
</g>
</g>
<path d="M46.9127 1.71617C48.0655 0.563361 49.9345 0.563361 51.0873 1.71617L76.1354 26.7642C77.2882 27.917 77.2882 29.7861 76.1354 30.9389L51.0873 55.987C49.9345 57.1398 48.0655 57.1398 46.9127 55.987L21.8646 30.9389C20.7118 29.7861 20.7118 27.917 21.8646 26.7642L46.9127 1.71617Z" fill="#788896"/>
<defs>
<filter id="filter0_d_812_75483" x="18" y="-2.14844" width="62" height="62" filterUnits="userSpaceOnUse" color-interpolation-filters="sRGB">
<feFlood flood-opacity="0" result="BackgroundImageFix"/>
<feColorMatrix in="SourceAlpha" type="matrix" values="0 0 0 0 0 0 0 0 0 0 0 0 0 0 0 0 0 0 127 0" result="hardAlpha"/>
<feOffset/>
<feGaussianBlur stdDeviation="1.5"/>
<feColorMatrix type="matrix" values="0 0 0 0 0 0 0 0 0 0 0 0 0 0 0 0 0 0 0.6 0"/>
<feBlend mode="normal" in2="BackgroundImageFix" result="effect1_dropShadow_812_75483"/>
<feBlend mode="normal" in="SourceGraphic" in2="effect1_dropShadow_812_75483" result="shape"/>
</filter>
</defs>
</svg>
